<mxfile host="app.diagrams.net" modified="2024-01-04T08:47:21.793Z" agent="Mozilla/5.0 (Windows NT 10.0; Win64; x64) AppleWebKit/537.36 (KHTML, like Gecko) Chrome/120.0.0.0 Safari/537.36 Edg/120.0.0.0" etag="pSO1sIc7bnYCsqP7lK4O" version="22.1.16" type="github">
  <diagram name="페이지-1" id="oa0nJWOy7TP7t1QkJZhz">
    <mxGraphModel dx="1412" dy="1450" grid="1" gridSize="10" guides="1" tooltips="1" connect="1" arrows="1" fold="1" page="0" pageScale="1" pageWidth="827" pageHeight="1169" math="0" shadow="0">
      <root>
        <mxCell id="0" />
        <mxCell id="1" parent="0" />
        <mxCell id="67NXc-BIiIhMoc2O-bAa-38" value="" style="endArrow=none;html=1;rounded=0;fontSize=12;startSize=8;endSize=8;curved=1;exitX=0;exitY=0.5;exitDx=0;exitDy=0;entryX=1;entryY=0.5;entryDx=0;entryDy=0;" edge="1" parent="1" source="67NXc-BIiIhMoc2O-bAa-21" target="67NXc-BIiIhMoc2O-bAa-21">
          <mxGeometry relative="1" as="geometry">
            <mxPoint x="174" y="-313" as="sourcePoint" />
            <mxPoint x="334" y="-313" as="targetPoint" />
          </mxGeometry>
        </mxCell>
        <mxCell id="67NXc-BIiIhMoc2O-bAa-39" value="M" style="resizable=0;html=1;whiteSpace=wrap;align=left;verticalAlign=bottom;fontSize=16;" connectable="0" vertex="1" parent="67NXc-BIiIhMoc2O-bAa-38">
          <mxGeometry x="-1" relative="1" as="geometry" />
        </mxCell>
        <mxCell id="67NXc-BIiIhMoc2O-bAa-40" value="N" style="resizable=0;html=1;whiteSpace=wrap;align=right;verticalAlign=bottom;fontSize=16;" connectable="0" vertex="1" parent="67NXc-BIiIhMoc2O-bAa-38">
          <mxGeometry x="1" relative="1" as="geometry" />
        </mxCell>
        <mxCell id="67NXc-BIiIhMoc2O-bAa-3" value="교수" style="whiteSpace=wrap;html=1;align=center;fontSize=16;fillColor=#f5f5f5;strokeColor=#666666;gradientColor=#b3b3b3;" vertex="1" parent="1">
          <mxGeometry x="-73" y="-475" width="100" height="40" as="geometry" />
        </mxCell>
        <mxCell id="67NXc-BIiIhMoc2O-bAa-4" value="교수" style="whiteSpace=wrap;html=1;align=center;fontSize=16;fillColor=#f5f5f5;gradientColor=#b3b3b3;strokeColor=#666666;" vertex="1" parent="1">
          <mxGeometry x="398" y="-475" width="100" height="40" as="geometry" />
        </mxCell>
        <mxCell id="67NXc-BIiIhMoc2O-bAa-5" value="교수" style="whiteSpace=wrap;html=1;align=center;fontSize=16;fillColor=#f5f5f5;gradientColor=#b3b3b3;strokeColor=#666666;" vertex="1" parent="1">
          <mxGeometry x="-73" y="-269" width="100" height="40" as="geometry" />
        </mxCell>
        <mxCell id="67NXc-BIiIhMoc2O-bAa-6" value="교수" style="whiteSpace=wrap;html=1;align=center;fontSize=16;fillColor=#f5f5f5;gradientColor=#b3b3b3;strokeColor=#666666;" vertex="1" parent="1">
          <mxGeometry x="398" y="-269" width="100" height="40" as="geometry" />
        </mxCell>
        <mxCell id="67NXc-BIiIhMoc2O-bAa-7" value="교수코드" style="ellipse;whiteSpace=wrap;html=1;align=center;fontStyle=4;fontSize=16;" vertex="1" parent="1">
          <mxGeometry x="-238" y="-515" width="100" height="40" as="geometry" />
        </mxCell>
        <mxCell id="67NXc-BIiIhMoc2O-bAa-8" value="교수이름" style="ellipse;whiteSpace=wrap;html=1;align=center;fontSize=16;" vertex="1" parent="1">
          <mxGeometry x="-238" y="-435" width="100" height="40" as="geometry" />
        </mxCell>
        <mxCell id="67NXc-BIiIhMoc2O-bAa-9" value="과목명" style="ellipse;whiteSpace=wrap;html=1;align=center;fontSize=16;" vertex="1" parent="1">
          <mxGeometry x="-238" y="-269" width="100" height="40" as="geometry" />
        </mxCell>
        <mxCell id="67NXc-BIiIhMoc2O-bAa-10" value="종료일" style="ellipse;whiteSpace=wrap;html=1;align=center;fontSize=16;" vertex="1" parent="1">
          <mxGeometry x="-240" y="-206" width="100" height="40" as="geometry" />
        </mxCell>
        <mxCell id="67NXc-BIiIhMoc2O-bAa-11" value="시작일" style="ellipse;whiteSpace=wrap;html=1;align=center;fontSize=16;" vertex="1" parent="1">
          <mxGeometry x="-173" y="-147" width="100" height="40" as="geometry" />
        </mxCell>
        <mxCell id="67NXc-BIiIhMoc2O-bAa-12" value="과목코드" style="ellipse;whiteSpace=wrap;html=1;align=center;fontStyle=4;fontSize=16;" vertex="1" parent="1">
          <mxGeometry x="-238" y="-335" width="100" height="40" as="geometry" />
        </mxCell>
        <mxCell id="67NXc-BIiIhMoc2O-bAa-13" value="학과코드" style="ellipse;whiteSpace=wrap;html=1;align=center;fontStyle=4;fontSize=16;" vertex="1" parent="1">
          <mxGeometry x="547" y="-515" width="100" height="40" as="geometry" />
        </mxCell>
        <mxCell id="67NXc-BIiIhMoc2O-bAa-14" value="학번" style="ellipse;whiteSpace=wrap;html=1;align=center;fontStyle=4;fontSize=16;" vertex="1" parent="1">
          <mxGeometry x="547" y="-335" width="100" height="40" as="geometry" />
        </mxCell>
        <mxCell id="67NXc-BIiIhMoc2O-bAa-16" value="학과명" style="ellipse;whiteSpace=wrap;html=1;align=center;fontSize=16;" vertex="1" parent="1">
          <mxGeometry x="547" y="-435" width="100" height="40" as="geometry" />
        </mxCell>
        <mxCell id="67NXc-BIiIhMoc2O-bAa-17" value="이름" style="ellipse;whiteSpace=wrap;html=1;align=center;fontSize=16;" vertex="1" parent="1">
          <mxGeometry x="547" y="-269" width="100" height="40" as="geometry" />
        </mxCell>
        <mxCell id="67NXc-BIiIhMoc2O-bAa-18" value="키" style="ellipse;whiteSpace=wrap;html=1;align=center;fontSize=16;" vertex="1" parent="1">
          <mxGeometry x="547" y="-206" width="100" height="40" as="geometry" />
        </mxCell>
        <mxCell id="67NXc-BIiIhMoc2O-bAa-19" value="소속" style="shape=rhombus;perimeter=rhombusPerimeter;whiteSpace=wrap;html=1;align=center;fontSize=16;fillColor=#d5e8d4;gradientColor=#97d077;strokeColor=#82b366;" vertex="1" parent="1">
          <mxGeometry x="149" y="-485" width="120" height="60" as="geometry" />
        </mxCell>
        <mxCell id="67NXc-BIiIhMoc2O-bAa-20" value="강의" style="shape=rhombus;perimeter=rhombusPerimeter;whiteSpace=wrap;html=1;align=center;fontSize=16;fillColor=#d5e8d4;gradientColor=#97d077;strokeColor=#82b366;" vertex="1" parent="1">
          <mxGeometry x="-83" y="-382" width="120" height="60" as="geometry" />
        </mxCell>
        <mxCell id="67NXc-BIiIhMoc2O-bAa-21" value="수강" style="shape=rhombus;perimeter=rhombusPerimeter;whiteSpace=wrap;html=1;align=center;fontSize=16;fillColor=#d5e8d4;gradientColor=#97d077;strokeColor=#82b366;" vertex="1" parent="1">
          <mxGeometry x="149" y="-279" width="120" height="60" as="geometry" />
        </mxCell>
        <mxCell id="67NXc-BIiIhMoc2O-bAa-22" value="소속" style="shape=rhombus;perimeter=rhombusPerimeter;whiteSpace=wrap;html=1;align=center;fontSize=16;fillColor=#d5e8d4;gradientColor=#97d077;strokeColor=#82b366;" vertex="1" parent="1">
          <mxGeometry x="388" y="-382" width="120" height="60" as="geometry" />
        </mxCell>
        <mxCell id="67NXc-BIiIhMoc2O-bAa-23" value="" style="endArrow=none;html=1;rounded=0;fontSize=12;startSize=8;endSize=8;curved=1;entryX=0;entryY=0.5;entryDx=0;entryDy=0;exitX=1;exitY=0.5;exitDx=0;exitDy=0;" edge="1" parent="1" source="67NXc-BIiIhMoc2O-bAa-7" target="67NXc-BIiIhMoc2O-bAa-3">
          <mxGeometry relative="1" as="geometry">
            <mxPoint x="174" y="-313" as="sourcePoint" />
            <mxPoint x="334" y="-313" as="targetPoint" />
          </mxGeometry>
        </mxCell>
        <mxCell id="67NXc-BIiIhMoc2O-bAa-24" value="" style="endArrow=none;html=1;rounded=0;fontSize=12;startSize=8;endSize=8;curved=1;entryX=0;entryY=0.5;entryDx=0;entryDy=0;exitX=1;exitY=0.5;exitDx=0;exitDy=0;" edge="1" parent="1" source="67NXc-BIiIhMoc2O-bAa-8" target="67NXc-BIiIhMoc2O-bAa-3">
          <mxGeometry relative="1" as="geometry">
            <mxPoint x="174" y="-313" as="sourcePoint" />
            <mxPoint x="334" y="-313" as="targetPoint" />
          </mxGeometry>
        </mxCell>
        <mxCell id="67NXc-BIiIhMoc2O-bAa-25" value="" style="endArrow=none;html=1;rounded=0;fontSize=12;startSize=8;endSize=8;curved=1;entryX=1;entryY=1;entryDx=0;entryDy=0;exitX=0;exitY=0.5;exitDx=0;exitDy=0;" edge="1" parent="1" source="67NXc-BIiIhMoc2O-bAa-5" target="67NXc-BIiIhMoc2O-bAa-12">
          <mxGeometry relative="1" as="geometry">
            <mxPoint x="184" y="-303" as="sourcePoint" />
            <mxPoint x="344" y="-303" as="targetPoint" />
          </mxGeometry>
        </mxCell>
        <mxCell id="67NXc-BIiIhMoc2O-bAa-26" value="" style="endArrow=none;html=1;rounded=0;fontSize=12;startSize=8;endSize=8;curved=1;entryX=1;entryY=0.5;entryDx=0;entryDy=0;exitX=0;exitY=0.5;exitDx=0;exitDy=0;" edge="1" parent="1" source="67NXc-BIiIhMoc2O-bAa-5" target="67NXc-BIiIhMoc2O-bAa-9">
          <mxGeometry relative="1" as="geometry">
            <mxPoint x="194" y="-293" as="sourcePoint" />
            <mxPoint x="354" y="-293" as="targetPoint" />
          </mxGeometry>
        </mxCell>
        <mxCell id="67NXc-BIiIhMoc2O-bAa-27" value="" style="endArrow=none;html=1;rounded=0;fontSize=12;startSize=8;endSize=8;curved=1;entryX=1;entryY=0;entryDx=0;entryDy=0;exitX=0;exitY=0.5;exitDx=0;exitDy=0;" edge="1" parent="1" source="67NXc-BIiIhMoc2O-bAa-5" target="67NXc-BIiIhMoc2O-bAa-10">
          <mxGeometry relative="1" as="geometry">
            <mxPoint x="204" y="-283" as="sourcePoint" />
            <mxPoint x="364" y="-283" as="targetPoint" />
          </mxGeometry>
        </mxCell>
        <mxCell id="67NXc-BIiIhMoc2O-bAa-28" value="" style="endArrow=none;html=1;rounded=0;fontSize=12;startSize=8;endSize=8;curved=1;entryX=0;entryY=0.5;entryDx=0;entryDy=0;exitX=0.5;exitY=0;exitDx=0;exitDy=0;" edge="1" parent="1" source="67NXc-BIiIhMoc2O-bAa-11" target="67NXc-BIiIhMoc2O-bAa-5">
          <mxGeometry relative="1" as="geometry">
            <mxPoint x="214" y="-273" as="sourcePoint" />
            <mxPoint x="374" y="-273" as="targetPoint" />
          </mxGeometry>
        </mxCell>
        <mxCell id="67NXc-BIiIhMoc2O-bAa-29" value="" style="endArrow=none;html=1;rounded=0;fontSize=12;startSize=8;endSize=8;curved=1;entryX=1;entryY=0.5;entryDx=0;entryDy=0;exitX=0;exitY=0.5;exitDx=0;exitDy=0;" edge="1" parent="1" source="67NXc-BIiIhMoc2O-bAa-14" target="67NXc-BIiIhMoc2O-bAa-6">
          <mxGeometry relative="1" as="geometry">
            <mxPoint x="224" y="-263" as="sourcePoint" />
            <mxPoint x="384" y="-263" as="targetPoint" />
          </mxGeometry>
        </mxCell>
        <mxCell id="67NXc-BIiIhMoc2O-bAa-30" value="" style="endArrow=none;html=1;rounded=0;fontSize=12;startSize=8;endSize=8;curved=1;entryX=0;entryY=0.5;entryDx=0;entryDy=0;exitX=1;exitY=0.5;exitDx=0;exitDy=0;" edge="1" parent="1" source="67NXc-BIiIhMoc2O-bAa-6" target="67NXc-BIiIhMoc2O-bAa-17">
          <mxGeometry relative="1" as="geometry">
            <mxPoint x="484" y="-164" as="sourcePoint" />
            <mxPoint x="394" y="-253" as="targetPoint" />
          </mxGeometry>
        </mxCell>
        <mxCell id="67NXc-BIiIhMoc2O-bAa-31" value="" style="endArrow=none;html=1;rounded=0;fontSize=12;startSize=8;endSize=8;curved=1;entryX=0;entryY=0.5;entryDx=0;entryDy=0;exitX=1;exitY=0.5;exitDx=0;exitDy=0;" edge="1" parent="1" source="67NXc-BIiIhMoc2O-bAa-6" target="67NXc-BIiIhMoc2O-bAa-18">
          <mxGeometry relative="1" as="geometry">
            <mxPoint x="244" y="-243" as="sourcePoint" />
            <mxPoint x="404" y="-243" as="targetPoint" />
          </mxGeometry>
        </mxCell>
        <mxCell id="67NXc-BIiIhMoc2O-bAa-32" value="" style="endArrow=none;html=1;rounded=0;fontSize=12;startSize=8;endSize=8;curved=1;entryX=0;entryY=0.5;entryDx=0;entryDy=0;exitX=1;exitY=0.5;exitDx=0;exitDy=0;" edge="1" parent="1" source="67NXc-BIiIhMoc2O-bAa-4" target="67NXc-BIiIhMoc2O-bAa-13">
          <mxGeometry relative="1" as="geometry">
            <mxPoint x="254" y="-233" as="sourcePoint" />
            <mxPoint x="414" y="-233" as="targetPoint" />
          </mxGeometry>
        </mxCell>
        <mxCell id="67NXc-BIiIhMoc2O-bAa-33" value="" style="endArrow=none;html=1;rounded=0;fontSize=12;startSize=8;endSize=8;curved=1;entryX=0;entryY=0.5;entryDx=0;entryDy=0;exitX=1;exitY=0.5;exitDx=0;exitDy=0;" edge="1" parent="1" source="67NXc-BIiIhMoc2O-bAa-4" target="67NXc-BIiIhMoc2O-bAa-16">
          <mxGeometry relative="1" as="geometry">
            <mxPoint x="264" y="-223" as="sourcePoint" />
            <mxPoint x="424" y="-223" as="targetPoint" />
          </mxGeometry>
        </mxCell>
        <mxCell id="67NXc-BIiIhMoc2O-bAa-34" value="" style="endArrow=none;html=1;rounded=0;fontSize=12;startSize=8;endSize=8;curved=1;entryX=0.5;entryY=0;entryDx=0;entryDy=0;exitX=0.5;exitY=1;exitDx=0;exitDy=0;" edge="1" parent="1" source="67NXc-BIiIhMoc2O-bAa-3" target="67NXc-BIiIhMoc2O-bAa-20">
          <mxGeometry relative="1" as="geometry">
            <mxPoint x="174" y="-313" as="sourcePoint" />
            <mxPoint x="334" y="-313" as="targetPoint" />
          </mxGeometry>
        </mxCell>
        <mxCell id="67NXc-BIiIhMoc2O-bAa-35" value="1" style="resizable=0;html=1;whiteSpace=wrap;align=right;verticalAlign=bottom;fontSize=16;" connectable="0" vertex="1" parent="67NXc-BIiIhMoc2O-bAa-34">
          <mxGeometry x="1" relative="1" as="geometry" />
        </mxCell>
        <mxCell id="67NXc-BIiIhMoc2O-bAa-36" value="" style="endArrow=none;html=1;rounded=0;fontSize=12;startSize=8;endSize=8;curved=1;entryX=0.5;entryY=1;entryDx=0;entryDy=0;exitX=0.5;exitY=0;exitDx=0;exitDy=0;" edge="1" parent="1" source="67NXc-BIiIhMoc2O-bAa-5" target="67NXc-BIiIhMoc2O-bAa-20">
          <mxGeometry relative="1" as="geometry">
            <mxPoint x="174" y="-313" as="sourcePoint" />
            <mxPoint x="334" y="-313" as="targetPoint" />
          </mxGeometry>
        </mxCell>
        <mxCell id="67NXc-BIiIhMoc2O-bAa-37" value="N" style="resizable=0;html=1;whiteSpace=wrap;align=right;verticalAlign=bottom;fontSize=16;" connectable="0" vertex="1" parent="67NXc-BIiIhMoc2O-bAa-36">
          <mxGeometry x="1" relative="1" as="geometry" />
        </mxCell>
        <mxCell id="67NXc-BIiIhMoc2O-bAa-41" value="" style="endArrow=none;html=1;rounded=0;fontSize=12;startSize=8;endSize=8;curved=1;exitX=0;exitY=0.5;exitDx=0;exitDy=0;entryX=1;entryY=0.5;entryDx=0;entryDy=0;" edge="1" parent="1" source="67NXc-BIiIhMoc2O-bAa-21" target="67NXc-BIiIhMoc2O-bAa-5">
          <mxGeometry relative="1" as="geometry">
            <mxPoint x="174" y="-313" as="sourcePoint" />
            <mxPoint x="72" y="-314" as="targetPoint" />
          </mxGeometry>
        </mxCell>
        <mxCell id="67NXc-BIiIhMoc2O-bAa-42" value="1" style="resizable=0;html=1;whiteSpace=wrap;align=right;verticalAlign=bottom;fontSize=16;" connectable="0" vertex="1" parent="67NXc-BIiIhMoc2O-bAa-41">
          <mxGeometry x="1" relative="1" as="geometry" />
        </mxCell>
        <mxCell id="67NXc-BIiIhMoc2O-bAa-43" value="" style="endArrow=none;html=1;rounded=0;fontSize=12;startSize=8;endSize=8;curved=1;entryX=0;entryY=0.5;entryDx=0;entryDy=0;exitX=1;exitY=0.5;exitDx=0;exitDy=0;" edge="1" parent="1" source="67NXc-BIiIhMoc2O-bAa-21" target="67NXc-BIiIhMoc2O-bAa-6">
          <mxGeometry relative="1" as="geometry">
            <mxPoint x="174" y="-313" as="sourcePoint" />
            <mxPoint x="334" y="-313" as="targetPoint" />
          </mxGeometry>
        </mxCell>
        <mxCell id="67NXc-BIiIhMoc2O-bAa-44" value="1" style="resizable=0;html=1;whiteSpace=wrap;align=right;verticalAlign=bottom;fontSize=16;" connectable="0" vertex="1" parent="67NXc-BIiIhMoc2O-bAa-43">
          <mxGeometry x="1" relative="1" as="geometry" />
        </mxCell>
        <mxCell id="67NXc-BIiIhMoc2O-bAa-45" value="" style="endArrow=none;html=1;rounded=0;fontSize=12;startSize=8;endSize=8;curved=1;entryX=0.5;entryY=1;entryDx=0;entryDy=0;exitX=0.5;exitY=0;exitDx=0;exitDy=0;" edge="1" parent="1" source="67NXc-BIiIhMoc2O-bAa-6" target="67NXc-BIiIhMoc2O-bAa-22">
          <mxGeometry relative="1" as="geometry">
            <mxPoint x="174" y="-313" as="sourcePoint" />
            <mxPoint x="334" y="-313" as="targetPoint" />
          </mxGeometry>
        </mxCell>
        <mxCell id="67NXc-BIiIhMoc2O-bAa-46" value="N" style="resizable=0;html=1;whiteSpace=wrap;align=right;verticalAlign=bottom;fontSize=16;" connectable="0" vertex="1" parent="67NXc-BIiIhMoc2O-bAa-45">
          <mxGeometry x="1" relative="1" as="geometry" />
        </mxCell>
        <mxCell id="67NXc-BIiIhMoc2O-bAa-47" value="" style="endArrow=none;html=1;rounded=0;fontSize=12;startSize=8;endSize=8;curved=1;entryX=0.5;entryY=0;entryDx=0;entryDy=0;exitX=0.5;exitY=1;exitDx=0;exitDy=0;" edge="1" parent="1" source="67NXc-BIiIhMoc2O-bAa-4" target="67NXc-BIiIhMoc2O-bAa-22">
          <mxGeometry relative="1" as="geometry">
            <mxPoint x="174" y="-313" as="sourcePoint" />
            <mxPoint x="334" y="-313" as="targetPoint" />
          </mxGeometry>
        </mxCell>
        <mxCell id="67NXc-BIiIhMoc2O-bAa-48" value="1" style="resizable=0;html=1;whiteSpace=wrap;align=right;verticalAlign=bottom;fontSize=16;" connectable="0" vertex="1" parent="67NXc-BIiIhMoc2O-bAa-47">
          <mxGeometry x="1" relative="1" as="geometry" />
        </mxCell>
        <mxCell id="67NXc-BIiIhMoc2O-bAa-49" value="" style="endArrow=none;html=1;rounded=0;fontSize=12;startSize=8;endSize=8;curved=1;entryX=1;entryY=0.5;entryDx=0;entryDy=0;exitX=0;exitY=0.5;exitDx=0;exitDy=0;" edge="1" parent="1" source="67NXc-BIiIhMoc2O-bAa-4" target="67NXc-BIiIhMoc2O-bAa-19">
          <mxGeometry relative="1" as="geometry">
            <mxPoint x="174" y="-313" as="sourcePoint" />
            <mxPoint x="334" y="-313" as="targetPoint" />
          </mxGeometry>
        </mxCell>
        <mxCell id="67NXc-BIiIhMoc2O-bAa-50" value="1" style="resizable=0;html=1;whiteSpace=wrap;align=right;verticalAlign=bottom;fontSize=16;" connectable="0" vertex="1" parent="67NXc-BIiIhMoc2O-bAa-49">
          <mxGeometry x="1" relative="1" as="geometry" />
        </mxCell>
        <mxCell id="67NXc-BIiIhMoc2O-bAa-51" value="" style="endArrow=none;html=1;rounded=0;fontSize=12;startSize=8;endSize=8;curved=1;exitX=1;exitY=0.5;exitDx=0;exitDy=0;entryX=0;entryY=0.5;entryDx=0;entryDy=0;" edge="1" parent="1" source="67NXc-BIiIhMoc2O-bAa-3" target="67NXc-BIiIhMoc2O-bAa-19">
          <mxGeometry relative="1" as="geometry">
            <mxPoint x="174" y="-313" as="sourcePoint" />
            <mxPoint x="334" y="-313" as="targetPoint" />
          </mxGeometry>
        </mxCell>
        <mxCell id="67NXc-BIiIhMoc2O-bAa-52" value="N" style="resizable=0;html=1;whiteSpace=wrap;align=right;verticalAlign=bottom;fontSize=16;" connectable="0" vertex="1" parent="67NXc-BIiIhMoc2O-bAa-51">
          <mxGeometry x="1" relative="1" as="geometry" />
        </mxCell>
        <mxCell id="67NXc-BIiIhMoc2O-bAa-53" value="&lt;font style=&quot;&quot; size=&quot;1&quot; color=&quot;#ffffff&quot;&gt;&lt;span style=&quot;font-size: 20px; background-color: rgb(0, 0, 0);&quot;&gt;학사관리 시스템ERD_정연재&lt;/span&gt;&lt;/font&gt;" style="text;strokeColor=none;fillColor=none;html=1;align=center;verticalAlign=middle;whiteSpace=wrap;rounded=0;fontSize=16;" vertex="1" parent="1">
          <mxGeometry x="-245" y="-563" width="275" height="30" as="geometry" />
        </mxCell>
      </root>
    </mxGraphModel>
  </diagram>
</mxfile>
